PathFileType	4	(X/Y/Z)	RBDS018static.trc
DataRate	CameraRate	NumFrames	NumMarkers	Units	OrigDataRate	OrigDataStartFrame	OrigNumFrames
150.000000	150.000000	4	48	mm	150.000000	0	150
Frame#	Time	L.Ankle			L.Ankle.Medial			L.ASIS			L.GTR			L.Heel.Bottom			L.Heel.Lateral			L.Heel.Top			L.HF			L.Iliac.Crest			L.Knee			L.Knee.Medial			L.MT1			L.MT2			L.MT5			L.PSIS			L.Shank.Bottom.Lateral			L.Shank.Bottom.Medial			L.Shank.Top.Lateral			L.Shank.Top.Medial			L.Thigh.Bottom.Lateral			L.Thigh.Bottom.Medial			L.Thigh.Top.Lateral			L.Thigh.Top.Medial			L.TT			R.Ankle			R.Ankle.Medial			R.ASIS			R.GTR			R.Heel.Bottom			R.Heel.Lateral			R.Heel.Top			R.HF			R.Iliac.Crest			R.Knee			R.Knee.Medial			R.MT1			R.MT2			R.MT5			R.PSIS			R.Shank.Bottom.Lateral			R.Shank.Bottom.Medial			R.Shank.Top.Lateral			R.Shank.Top.Medial			R.Thigh.Bottom.Lateral			R.Thigh.Bottom.Medial			R.Thigh.Top.Lateral			R.Thigh.Top.Medial			R.TT			
		X1	Y1	Z1	X2	Y2	Z2	X3	Y3	Z3	X4	Y4	Z4	X5	Y5	Z5	X6	Y6	Z6	X7	Y7	Z7	X8	Y8	Z8	X9	Y9	Z9	X10	Y10	Z10	X11	Y11	Z11	X12	Y12	Z12	X13	Y13	Z13	X14	Y14	Z14	X15	Y15	Z15	X16	Y16	Z16	X17	Y17	Z17	X18	Y18	Z18	X19	Y19	Z19	X20	Y20	Z20	X21	Y21	Z21	X22	Y22	Z22	X23	Y23	Z23	X24	Y24	Z24	X25	Y25	Z25	X26	Y26	Z26	X27	Y27	Z27	X28	Y28	Z28	X29	Y29	Z29	X30	Y30	Z30	X31	Y31	Z31	X32	Y32	Z32	X33	Y33	Z33	X34	Y34	Z34	X35	Y35	Z35	X36	Y36	Z36	X37	Y37	Z37	X38	Y38	Z38	X39	Y39	Z39	X40	Y40	Z40	X41	Y41	Z41	X42	Y42	Z42	X43	Y43	Z43	X44	Y44	Z44	X45	Y45	Z45	X46	Y46	Z46	X47	Y47	Z47	X48	Y48	Z48	

1	0	711.1368408203125	105.6883239746094	1044.442016601563	738.0587158203125	116.5480422973633	1128.137573242188	863.6390380859375	1072.99560546875	1129.316650390625	799.859130859375	970.378662109375	1049.523193359375	641.1210327148438	42.30036163330078	1087.373657226563	671.9220581054688	54.20129013061523	1041.019409179688	650.8731079101563	92.05510711669922	1085.273681640625	733.7752075195313	498.477783203125	1032.105834960938	787.4766845703125	1140.499633789063	1081.808227539063	747.4879150390625	565.1451416015625	1043.06103515625	746.5912475585938	531.404296875	1171.254760742188	863.7109985351563	56.30054473876953	1128.344848632813	874.242431640625	69.30898284912109	1074.694458007813	839.5381469726563	53.99284362792969	1014.892150878906	684.7455444335938	1080.796142578125	1182.643310546875	689.9768676757813	203.1426239013672	1034.387329101563	660.0343627929688	202.2645416259766	1076.130249023438	680.217041015625	282.9108276367188	1024.468139648438	650.5491943359375	286.2601013183594	1068.686401367188	749.8439331054688	675.4144287109375	1033.27880859375	693.290283203125	681.54052734375	1079.603515625	757.1685791015625	784.7299194335938	1029.129638671875	703.7758178710938	790.2662353515625	1074.113525390625	790.8262939453125	463.7582397460938	1087.300903320313	710.4163818359375	107.1738815307617	1414.245727539063	733.3397216796875	123.5266189575195	1330.569213867188	856.568115234375	1075.34912109375	1363.521484375	792.6415405273438	970.5740356445313	1429.04150390625	639.6588134765625	43.13691711425781	1374.37060546875	662.8048095703125	60.13736343383789	1410.398315429688	651.066650390625	93.05642700195313	1373.312133789063	741.7630615234375	490.9432678222656	1438.417846679688	781.119140625	1142.84521484375	1388.82470703125	743.3341674804688	555.3114624023438	1432.173217773438	742.8576049804688	533.5042724609375	1300.23388671875	861.7273559570313	59.78182220458984	1326.380249023438	875.1959228515625	69.50752258300781	1377.299682617188	838.18359375	55.81792449951172	1437.683227539063	682.2653198242188	1085.173217773438	1291.614379882813	705.7930297851563	211.7957458496094	1436.137451171875	662.6290283203125	214.9461059570313	1400.628540039063	699.3081665039063	292.0458679199219	1449.24755859375	658.4529418945313	294.232177734375	1413.76611328125	749.473388671875	668.8488159179688	1443.396484375	690.5967407226563	675.1302490234375	1400.808227539063	754.8947143554688	779.4176635742188	1448.699340820313	699.8543090820313	784.6333618164063	1408.3173828125	795.242919921875	468.5180358886719	1388.21630859375	
2	0.006666666666666667	711.1293334960938	105.6852188110352	1044.450439453125	738.055419921875	116.5512084960938	1128.148193359375	863.5689697265625	1073.010009765625	1129.311889648438	799.7975463867188	970.3781127929688	1049.499633789063	641.1256713867188	42.29758453369141	1087.371948242188	671.9176635742188	54.20768737792969	1041.01708984375	650.8710327148438	92.04969024658203	1085.274291992188	733.7734375	498.4792175292969	1032.111328125	787.395751953125	1140.513427734375	1081.8076171875	747.4688110351563	565.132568359375	1043.064208984375	746.5599365234375	531.3982543945313	1171.249755859375	863.7045288085938	56.30595016479492	1128.351440429688	874.2476196289063	69.30950927734375	1074.7001953125	839.5255126953125	53.99141693115234	1014.896850585938	684.67529296875	1080.779174804688	1182.6357421875	689.9644775390625	203.1471557617188	1034.390747070313	660.02587890625	202.2580718994141	1076.131591796875	680.2091674804688	282.90380859375	1024.474609375	650.5497436523438	286.2485961914063	1068.685302734375	749.8049926757813	675.4098510742188	1033.279907226563	693.2620239257813	681.5304565429688	1079.61474609375	757.1114501953125	784.72509765625	1029.129150390625	703.728515625	790.2526245117188	1074.1181640625	790.8224487304688	463.75732421875	1087.296752929688	710.4111938476563	107.1727752685547	1414.255737304688	733.3287353515625	123.5263671875	1330.584228515625	856.5054931640625	1075.35595703125	1363.516479492188	792.58935546875	970.5735473632813	1429.05078125	639.663818359375	43.13118743896484	1374.373779296875	662.8030395507813	60.13352584838867	1410.405639648438	651.0656127929688	93.05341339111328	1373.323852539063	741.75244140625	490.9417724609375	1438.41015625	781.0733642578125	1142.843383789063	1388.819580078125	743.324951171875	555.3063354492188	1432.168334960938	742.8261108398438	533.5070190429688	1300.248168945313	861.716064453125	59.7990837097168	1326.388549804688	875.1952514648438	69.51127624511719	1377.299072265625	838.1910400390625	55.82508850097656	1437.702026367188	682.203125	1085.167724609375	1291.611328125	705.7937622070313	211.8036804199219	1436.142211914063	662.6239624023438	214.9449462890625	1400.650268554688	699.3018798828125	292.0370483398438	1449.255493164063	658.433349609375	294.2268371582031	1413.779541015625	749.4578247070313	668.8461303710938	1443.406860351563	690.5747680664063	675.1196899414063	1400.818359375	754.86669921875	779.421142578125	1448.705200195313	699.817138671875	784.6279907226563	1408.324096679688	795.2324829101563	468.5176086425781	1388.194580078125	
3	0.01333333333333333	711.1290283203125	105.6798706054688	1044.442993164063	738.0554809570313	116.5423583984375	1128.151611328125	863.4915161132813	1073.019653320313	1129.304931640625	799.7503662109375	970.37353515625	1049.491821289063	641.1204833984375	42.29933166503906	1087.375732421875	671.9190063476563	54.19287872314453	1041.014770507813	650.8711547851563	92.04338836669922	1085.269287109375	733.741943359375	498.4758605957031	1032.097778320313	787.3098754882813	1140.520874023438	1081.795166015625	747.4531860351563	565.1096801757813	1043.07763671875	746.5420532226563	531.3959350585938	1171.246337890625	863.7049560546875	56.2983512878418	1128.350952148438	874.2396850585938	69.31546020507813	1074.700927734375	839.5250244140625	53.98715591430664	1014.902160644531	684.6082763671875	1080.769897460938	1182.63037109375	689.964111328125	203.1389770507813	1034.390747070313	660.0205688476563	202.2516937255859	1076.131713867188	680.1948852539063	282.9334411621094	1024.465087890625	650.5380249023438	286.241455078125	1068.683715820313	749.751220703125	675.4013671875	1033.27490234375	693.2302856445313	681.5205078125	1079.629638671875	757.064697265625	784.7110595703125	1029.126342773438	703.6736450195313	790.2422485351563	1074.124145507813	790.82080078125	463.7720642089844	1087.327392578125	710.4065551757813	107.166374206543	1414.258056640625	733.3433227539063	123.5344848632813	1330.585571289063	856.44580078125	1075.355346679688	1363.497192382813	792.554443359375	970.5750732421875	1429.051147460938	639.6549682617188	43.12429046630859	1374.366577148438	662.7996215820313	60.12704849243164	1410.40087890625	651.05810546875	93.04685974121094	1373.323120117188	741.7343139648438	490.9378051757813	1438.408325195313	781.0113525390625	1142.853271484375	1388.808959960938	743.3052978515625	555.3104248046875	1432.17236328125	742.7933959960938	533.4951782226563	1300.233276367188	861.7173461914063	59.79866409301758	1326.40234375	875.1959228515625	69.50630187988281	1377.290283203125	838.1801147460938	55.81821441650391	1437.694702148438	682.12841796875	1085.144409179688	1291.617065429688	705.7855834960938	211.8010864257813	1436.15087890625	662.6134643554688	214.9346008300781	1400.661987304688	699.2947998046875	292.0361633300781	1449.257202148438	658.4161987304688	294.2129821777344	1413.789672851563	749.434814453125	668.8443603515625	1443.395751953125	690.561279296875	675.1105346679688	1400.842163085938	754.84814453125	779.4140014648438	1448.70263671875	699.7832641601563	784.6124877929688	1408.337280273438	795.2174682617188	468.5227355957031	1388.196411132813	
4	0.02	711.1241455078125	105.6790008544922	1044.445068359375	738.048828125	116.5312271118164	1128.15283203125	863.4219970703125	1073.044921875	1129.28466796875	799.6926879882813	970.3876342773438	1049.474487304688	641.1175537109375	42.28933715820313	1087.381225585938	671.91259765625	54.19564819335938	1041.020263671875	650.86767578125	92.04091644287109	1085.274291992188	733.7432250976563	498.4757690429688	1032.103881835938	787.2225952148438	1140.51953125	1081.796142578125	747.432861328125	565.12451171875	1043.0712890625	746.558349609375	531.4007568359375	1171.23876953125	863.6997680664063	56.3051643371582	1128.349731445313	874.2408447265625	69.32547760009766	1074.697265625	839.5186767578125	53.99438095092773	1014.898010253906	684.52880859375	1080.752197265625	1182.631591796875	689.960205078125	203.1345977783203	1034.396484375	660.0205688476563	202.2352447509766	1076.13818359375	680.1982421875	282.9241027832031	1024.46533203125	650.5275268554688	286.2317199707031	1068.686279296875	749.7194213867188	675.4053955078125	1033.281005859375	693.2017822265625	681.497802734375	1079.64208984375	757.0165405273438	784.7041015625	1029.123168945313	703.6248168945313	790.2236938476563	1074.124633789063	790.8097534179688	463.7765502929688	1087.323486328125	710.3978881835938	107.1642913818359	1414.262573242188	733.3323974609375	123.514518737793	1330.598754882813	856.4036254882813	1075.35888671875	1363.471069335938	792.5170288085938	970.5736694335938	1429.045654296875	639.6575927734375	43.12519454956055	1374.374633789063	662.7965087890625	60.12851333618164	1410.409301757813	651.060302734375	93.04462432861328	1373.3330078125	741.7251586914063	490.9281311035156	1438.41357421875	780.9605712890625	1142.848266601563	1388.8046875	743.2943725585938	555.3056640625	1432.174560546875	742.7573852539063	533.4884033203125	1300.231811523438	861.7222290039063	59.79985809326172	1326.39990234375	875.1925659179688	69.51396179199219	1377.29345703125	838.1854248046875	55.82943344116211	1437.695556640625	682.04150390625	1085.141845703125	1291.615600585938	705.7877807617188	211.7937927246094	1436.156616210938	662.6087646484375	214.9270172119141	1400.672485351563	699.2819213867188	292.0357055664063	1449.263305664063	658.3955688476563	294.2106628417969	1413.80615234375	749.4338989257813	668.8372802734375	1443.40087890625	690.5494995117188	675.1066284179688	1400.857788085938	754.8239135742188	779.4122314453125	1448.7021484375	699.751953125	784.6157836914063	1408.357788085938	795.208740234375	468.5184326171875	1388.182250976563	
